REM DIRINDEX 1\2\4,1\2\5,1\3\6,1\3\7,1\3\8
REM DIRNAME cjc094,folder01,folder02,folder03,folder04,folder05,folder06,folder07
TITLE ""
FILE "LV3_056_WORDS.mp3" MP3
  TRACK 01 AUDIO
    TITLE "0:"
    INDEX 01 00:00:00
  TRACK 02 AUDIO
    TITLE "6:cjc094_1986"
    INDEX 01 00:00:03
  TRACK 03 AUDIO
    TITLE "0:"
    INDEX 01 00:02:45
  TRACK 04 AUDIO
    TITLE "7:cjc094_1987"
    INDEX 01 00:03:17
  TRACK 05 AUDIO
    TITLE "0:"
    INDEX 01 00:04:21
  TRACK 06 AUDIO
    TITLE "8:cjc094_1988"
    INDEX 01 00:04:42
  TRACK 07 AUDIO
    TITLE "0:"
    INDEX 01 00:07:60
  TRACK 08 AUDIO
    TITLE "7:cjc094_1989"
    INDEX 01 00:08:32
  TRACK 09 AUDIO
    TITLE "0:"
    INDEX 01 00:09:38
  TRACK 10 AUDIO
    TITLE "8:cjc094_1990"
    INDEX 01 00:09:59
  TRACK 11 AUDIO
    TITLE "0:"
    INDEX 01 00:13:24
  TRACK 12 AUDIO
    TITLE "7:cjc094_1991"
    INDEX 01 00:14:04
  TRACK 13 AUDIO
    TITLE "0:"
    INDEX 01 00:14:66
  TRACK 14 AUDIO
    TITLE "8:cjc094_1992"
    INDEX 01 00:15:11
  TRACK 15 AUDIO
    TITLE "0:"
    INDEX 01 00:17:27
  TRACK 16 AUDIO
    TITLE "7:cjc094_1993"
    INDEX 01 00:18:13
  TRACK 17 AUDIO
    TITLE "0:"
    INDEX 01 00:19:01
  TRACK 18 AUDIO
    TITLE "8:cjc094_1994"
    INDEX 01 00:19:22
  TRACK 19 AUDIO
    TITLE "0:"
    INDEX 01 00:20:24
  TRACK 20 AUDIO
    TITLE "7:cjc094_1995"
    INDEX 01 00:21:04
  TRACK 21 AUDIO
    TITLE "0:"
    INDEX 01 00:21:72
  TRACK 22 AUDIO
    TITLE "8:cjc094_1996"
    INDEX 01 00:22:15
  TRACK 23 AUDIO
    TITLE "0:"
    INDEX 01 00:23:14
  TRACK 24 AUDIO
    TITLE "7:cjc094_1997"
    INDEX 01 00:23:71
  TRACK 25 AUDIO
    TITLE "0:"
    INDEX 01 00:25:05
  TRACK 26 AUDIO
    TITLE "8:cjc094_1998"
    INDEX 01 00:25:23
  TRACK 27 AUDIO
    TITLE "0:"
    INDEX 01 00:26:28
  TRACK 28 AUDIO
    TITLE "7:cjc094_1999"
    INDEX 01 00:27:04
  TRACK 29 AUDIO
    TITLE "0:"
    INDEX 01 00:28:21
  TRACK 30 AUDIO
    TITLE "8:cjc094_2000"
    INDEX 01 00:28:37
  TRACK 31 AUDIO
    TITLE "0:"
    INDEX 01 00:29:48
  TRACK 32 AUDIO
    TITLE "7:cjc094_2001"
    INDEX 01 00:30:30
  TRACK 33 AUDIO
    TITLE "0:"
    INDEX 01 00:31:29
  TRACK 34 AUDIO
    TITLE "8:cjc094_2002"
    INDEX 01 00:31:47
  TRACK 35 AUDIO
    TITLE "0:"
    INDEX 01 00:33:58
  TRACK 36 AUDIO
    TITLE "7:cjc094_2003"
    INDEX 01 00:34:38
  TRACK 37 AUDIO
    TITLE "0:"
    INDEX 01 00:35:41
  TRACK 38 AUDIO
    TITLE "8:cjc094_2004"
    INDEX 01 00:35:63
  TRACK 39 AUDIO
    TITLE "0:"
    INDEX 01 00:37:05
  TRACK 40 AUDIO
    TITLE "7:cjc094_2005"
    INDEX 01 00:37:46
  TRACK 41 AUDIO
    TITLE "0:"
    INDEX 01 00:38:59
  TRACK 42 AUDIO
    TITLE "8:cjc094_2006"
    INDEX 01 00:39:05
  TRACK 43 AUDIO
    TITLE "0:"
    INDEX 01 00:41:38
  TRACK 44 AUDIO
    TITLE "7:cjc094_2007"
    INDEX 01 00:42:18
  TRACK 45 AUDIO
    TITLE "0:"
    INDEX 01 00:43:09
  TRACK 46 AUDIO
    TITLE "8:cjc094_2008"
    INDEX 01 00:43:29
  TRACK 47 AUDIO
    TITLE "0:"
    INDEX 01 00:44:28
  TRACK 48 AUDIO
    TITLE "7:cjc094_2009"
    INDEX 01 00:45:06
  TRACK 49 AUDIO
    TITLE "0:"
    INDEX 01 00:45:69
  TRACK 50 AUDIO
    TITLE "8:cjc094_2010"
    INDEX 01 00:46:15
  TRACK 51 AUDIO
    TITLE "0:"
    INDEX 01 00:48:55
  TRACK 52 AUDIO
    TITLE "7:cjc094_2011"
    INDEX 01 00:49:29
  TRACK 53 AUDIO
    TITLE "0:"
    INDEX 01 00:50:19
  TRACK 54 AUDIO
    TITLE "8:cjc094_2012"
    INDEX 01 00:50:31
  TRACK 55 AUDIO
    TITLE "0:"
    INDEX 01 00:53:23
  TRACK 56 AUDIO
    TITLE "7:cjc094_2013"
    INDEX 01 00:53:68
  TRACK 57 AUDIO
    TITLE "0:"
    INDEX 01 00:55:22
  TRACK 58 AUDIO
    TITLE "8:cjc094_2014"
    INDEX 01 00:55:44
  TRACK 59 AUDIO
    TITLE "0:"
    INDEX 01 00:56:65
  TRACK 60 AUDIO
    TITLE "7:cjc094_2015"
    INDEX 01 00:57:45
  TRACK 61 AUDIO
    TITLE "0:"
    INDEX 01 00:58:52
  TRACK 62 AUDIO
    TITLE "8:cjc094_2016"
    INDEX 01 00:59:02
  TRACK 63 AUDIO
    TITLE "0:"
    INDEX 01 01:01:29
  TRACK 64 AUDIO
    TITLE "7:cjc094_2017"
    INDEX 01 01:02:05
  TRACK 65 AUDIO
    TITLE "0:"
    INDEX 01 01:03:08
  TRACK 66 AUDIO
    TITLE "8:cjc094_2018"
    INDEX 01 01:03:29
  TRACK 67 AUDIO
    TITLE "0:"
    INDEX 01 01:04:27
